<mxfile host="Electron" agent="Mozilla/5.0 (Windows NT 10.0; Win64; x64) AppleWebKit/537.36 (KHTML, like Gecko) draw.io/28.0.6 Chrome/138.0.7204.100 Electron/37.2.3 Safari/537.36" version="28.0.6">
  <diagram name="Page-1" id="d_Kt_QQMZ-uzxniJckwG">
    <mxGraphModel dx="1371" dy="793" grid="1" gridSize="10" guides="1" tooltips="1" connect="1" arrows="1" fold="1" page="1" pageScale="1" pageWidth="1169" pageHeight="827" math="0" shadow="0">
      <root>
        <mxCell id="0" />
        <mxCell id="1" parent="0" />
        <mxCell id="MyAnfEykKp1ZIYtwIa3U-1" value="&lt;h1 style=&quot;margin-top: 0px;&quot;&gt;Data Flow Diagram&lt;/h1&gt;" style="text;html=1;whiteSpace=wrap;overflow=hidden;rounded=0;fontSize=17;" parent="1" vertex="1">
          <mxGeometry x="30" y="10" width="380" height="60" as="geometry" />
        </mxCell>
        <mxCell id="MyAnfEykKp1ZIYtwIa3U-2" value="" style="rounded=0;whiteSpace=wrap;html=1;fillColor=none;dashed=1;" parent="1" vertex="1">
          <mxGeometry x="120" y="160" width="150" height="400" as="geometry" />
        </mxCell>
        <mxCell id="MyAnfEykKp1ZIYtwIa3U-3" value="&lt;font style=&quot;font-size: 17px;&quot;&gt;Sources&lt;/font&gt;" style="rounded=0;whiteSpace=wrap;html=1;fillColor=default;strokeColor=none;" parent="1" vertex="1">
          <mxGeometry x="145" y="140" width="100" height="30" as="geometry" />
        </mxCell>
        <mxCell id="MyAnfEykKp1ZIYtwIa3U-78" style="edgeStyle=orthogonalEdgeStyle;rounded=0;orthogonalLoop=1;jettySize=auto;html=1;" parent="1" source="MyAnfEykKp1ZIYtwIa3U-10" target="MyAnfEykKp1ZIYtwIa3U-58" edge="1">
          <mxGeometry relative="1" as="geometry" />
        </mxCell>
        <mxCell id="MyAnfEykKp1ZIYtwIa3U-80" style="edgeStyle=orthogonalEdgeStyle;rounded=0;orthogonalLoop=1;jettySize=auto;html=1;entryX=0;entryY=0.5;entryDx=0;entryDy=0;" parent="1" source="MyAnfEykKp1ZIYtwIa3U-10" target="MyAnfEykKp1ZIYtwIa3U-60" edge="1">
          <mxGeometry relative="1" as="geometry" />
        </mxCell>
        <mxCell id="MyAnfEykKp1ZIYtwIa3U-10" value="" style="image;aspect=fixed;html=1;points=[];align=center;fontSize=12;image=img/lib/azure2/general/Folder_Blank.svg;" parent="1" vertex="1">
          <mxGeometry x="160.5" y="420" width="69" height="56.00000000000001" as="geometry" />
        </mxCell>
        <mxCell id="MyAnfEykKp1ZIYtwIa3U-12" value="&lt;b&gt;ERP&lt;/b&gt;" style="text;html=1;align=center;verticalAlign=middle;whiteSpace=wrap;rounded=0;" parent="1" vertex="1">
          <mxGeometry x="165" y="476" width="60" height="30" as="geometry" />
        </mxCell>
        <mxCell id="MyAnfEykKp1ZIYtwIa3U-23" value="" style="rounded=1;whiteSpace=wrap;html=1;fillColor=none;strokeColor=#CD7F32;" parent="1" vertex="1">
          <mxGeometry x="360" y="200" width="180" height="360" as="geometry" />
        </mxCell>
        <mxCell id="MyAnfEykKp1ZIYtwIa3U-24" value="" style="rounded=1;whiteSpace=wrap;html=1;fillColor=none;strokeColor=#FFD700;" parent="1" vertex="1">
          <mxGeometry x="840" y="200" width="180" height="360" as="geometry" />
        </mxCell>
        <mxCell id="MyAnfEykKp1ZIYtwIa3U-25" value="" style="rounded=1;whiteSpace=wrap;html=1;fillColor=none;strokeColor=#C0C0C0;" parent="1" vertex="1">
          <mxGeometry x="600" y="200" width="180" height="360" as="geometry" />
        </mxCell>
        <mxCell id="MyAnfEykKp1ZIYtwIa3U-27" value="&lt;b&gt;Gold Layer&lt;/b&gt;" style="rounded=1;whiteSpace=wrap;html=1;strokeColor=#FFD700;fillColor=#FFD700;fontSize=17;" parent="1" vertex="1">
          <mxGeometry x="840" y="160" width="180" height="30" as="geometry" />
        </mxCell>
        <mxCell id="MyAnfEykKp1ZIYtwIa3U-28" value="&lt;b&gt;Silver Layer&lt;/b&gt;" style="rounded=1;whiteSpace=wrap;html=1;fillColor=#C0C0C0;strokeColor=#C0C0C0;fontSize=17;" parent="1" vertex="1">
          <mxGeometry x="600" y="160" width="180" height="30" as="geometry" />
        </mxCell>
        <mxCell id="MyAnfEykKp1ZIYtwIa3U-30" value="&lt;b&gt;Bronze Layer&lt;/b&gt;" style="rounded=1;whiteSpace=wrap;html=1;strokeColor=#CD7F32;fillColor=#CD7F32;fontSize=17;" parent="1" vertex="1">
          <mxGeometry x="360" y="160" width="180" height="30" as="geometry" />
        </mxCell>
        <mxCell id="j78uBd7MLfnu-CO2hj0Y-17" style="edgeStyle=orthogonalEdgeStyle;rounded=0;orthogonalLoop=1;jettySize=auto;html=1;" parent="1" source="MyAnfEykKp1ZIYtwIa3U-31" target="j78uBd7MLfnu-CO2hj0Y-10" edge="1">
          <mxGeometry relative="1" as="geometry" />
        </mxCell>
        <mxCell id="MyAnfEykKp1ZIYtwIa3U-31" value="&lt;font style=&quot;font-size: 14px;&quot;&gt;crm_prd_info&lt;/font&gt;" style="rounded=1;whiteSpace=wrap;html=1;strokeColor=#CD7F32;fillColor=#CD7F32;" parent="1" vertex="1">
          <mxGeometry x="370" y="310" width="160" height="30" as="geometry" />
        </mxCell>
        <mxCell id="j78uBd7MLfnu-CO2hj0Y-14" style="edgeStyle=orthogonalEdgeStyle;rounded=0;orthogonalLoop=1;jettySize=auto;html=1;exitX=1;exitY=0.5;exitDx=0;exitDy=0;" parent="1" source="MyAnfEykKp1ZIYtwIa3U-32" target="j78uBd7MLfnu-CO2hj0Y-8" edge="1">
          <mxGeometry relative="1" as="geometry" />
        </mxCell>
        <mxCell id="MyAnfEykKp1ZIYtwIa3U-32" value="crm_sales_details" style="rounded=1;whiteSpace=wrap;html=1;strokeColor=#CD7F32;fillColor=#CD7F32;fontSize=14;" parent="1" vertex="1">
          <mxGeometry x="370" y="230" width="160" height="30" as="geometry" />
        </mxCell>
        <mxCell id="j78uBd7MLfnu-CO2hj0Y-16" style="edgeStyle=orthogonalEdgeStyle;rounded=0;orthogonalLoop=1;jettySize=auto;html=1;exitX=1;exitY=0.5;exitDx=0;exitDy=0;" parent="1" source="MyAnfEykKp1ZIYtwIa3U-33" target="j78uBd7MLfnu-CO2hj0Y-9" edge="1">
          <mxGeometry relative="1" as="geometry" />
        </mxCell>
        <mxCell id="MyAnfEykKp1ZIYtwIa3U-33" value="crm_cust_info" style="rounded=1;whiteSpace=wrap;html=1;strokeColor=#CD7F32;fillColor=#CD7F32;fontSize=14;" parent="1" vertex="1">
          <mxGeometry x="370" y="270" width="160" height="30" as="geometry" />
        </mxCell>
        <mxCell id="MyAnfEykKp1ZIYtwIa3U-50" style="edgeStyle=orthogonalEdgeStyle;rounded=0;orthogonalLoop=1;jettySize=auto;html=1;entryX=0;entryY=0.5;entryDx=0;entryDy=0;" parent="1" source="MyAnfEykKp1ZIYtwIa3U-40" target="MyAnfEykKp1ZIYtwIa3U-33" edge="1">
          <mxGeometry relative="1" as="geometry" />
        </mxCell>
        <mxCell id="MyAnfEykKp1ZIYtwIa3U-53" style="edgeStyle=orthogonalEdgeStyle;rounded=0;orthogonalLoop=1;jettySize=auto;html=1;entryX=0;entryY=0.5;entryDx=0;entryDy=0;" parent="1" source="MyAnfEykKp1ZIYtwIa3U-40" target="MyAnfEykKp1ZIYtwIa3U-31" edge="1">
          <mxGeometry relative="1" as="geometry" />
        </mxCell>
        <mxCell id="MyAnfEykKp1ZIYtwIa3U-54" style="edgeStyle=orthogonalEdgeStyle;rounded=0;orthogonalLoop=1;jettySize=auto;html=1;" parent="1" source="MyAnfEykKp1ZIYtwIa3U-40" target="MyAnfEykKp1ZIYtwIa3U-32" edge="1">
          <mxGeometry relative="1" as="geometry" />
        </mxCell>
        <mxCell id="MyAnfEykKp1ZIYtwIa3U-40" value="" style="image;aspect=fixed;html=1;points=[];align=center;fontSize=12;image=img/lib/azure2/general/Folder_Blank.svg;" parent="1" vertex="1">
          <mxGeometry x="155" y="256.78999999999996" width="69.5" height="56.41" as="geometry" />
        </mxCell>
        <mxCell id="MyAnfEykKp1ZIYtwIa3U-41" value="&lt;b&gt;CRM&lt;/b&gt;" style="text;html=1;align=center;verticalAlign=middle;whiteSpace=wrap;rounded=0;" parent="1" vertex="1">
          <mxGeometry x="165" y="310" width="60" height="30" as="geometry" />
        </mxCell>
        <mxCell id="j78uBd7MLfnu-CO2hj0Y-18" style="edgeStyle=orthogonalEdgeStyle;rounded=0;orthogonalLoop=1;jettySize=auto;html=1;exitX=1;exitY=0.5;exitDx=0;exitDy=0;entryX=0;entryY=0.5;entryDx=0;entryDy=0;" parent="1" source="MyAnfEykKp1ZIYtwIa3U-58" target="j78uBd7MLfnu-CO2hj0Y-11" edge="1">
          <mxGeometry relative="1" as="geometry" />
        </mxCell>
        <mxCell id="MyAnfEykKp1ZIYtwIa3U-58" value="&lt;font style=&quot;font-size: 14px;&quot;&gt;erp_cust_az12&lt;/font&gt;" style="rounded=1;whiteSpace=wrap;html=1;strokeColor=#CD7F32;fillColor=#CD7F32;" parent="1" vertex="1">
          <mxGeometry x="369.5" y="390" width="160.5" height="30" as="geometry" />
        </mxCell>
        <mxCell id="j78uBd7MLfnu-CO2hj0Y-19" style="edgeStyle=orthogonalEdgeStyle;rounded=0;orthogonalLoop=1;jettySize=auto;html=1;exitX=1;exitY=0.5;exitDx=0;exitDy=0;entryX=0;entryY=0.5;entryDx=0;entryDy=0;" parent="1" source="MyAnfEykKp1ZIYtwIa3U-59" target="j78uBd7MLfnu-CO2hj0Y-12" edge="1">
          <mxGeometry relative="1" as="geometry" />
        </mxCell>
        <mxCell id="MyAnfEykKp1ZIYtwIa3U-59" value="&lt;font style=&quot;font-size: 14px;&quot;&gt;erp_loc_a101&lt;/font&gt;" style="rounded=1;whiteSpace=wrap;html=1;strokeColor=#CD7F32;fillColor=#CD7F32;" parent="1" vertex="1">
          <mxGeometry x="369.5" y="430" width="160.5" height="30" as="geometry" />
        </mxCell>
        <mxCell id="j78uBd7MLfnu-CO2hj0Y-20" style="edgeStyle=orthogonalEdgeStyle;rounded=0;orthogonalLoop=1;jettySize=auto;html=1;" parent="1" source="MyAnfEykKp1ZIYtwIa3U-60" target="j78uBd7MLfnu-CO2hj0Y-13" edge="1">
          <mxGeometry relative="1" as="geometry" />
        </mxCell>
        <mxCell id="MyAnfEykKp1ZIYtwIa3U-60" value="&lt;font style=&quot;font-size: 14px;&quot;&gt;erp_px_cat_g1v2&lt;/font&gt;" style="rounded=1;whiteSpace=wrap;html=1;strokeColor=#CD7F32;fillColor=#CD7F32;" parent="1" vertex="1">
          <mxGeometry x="369.5" y="470" width="160.5" height="30" as="geometry" />
        </mxCell>
        <mxCell id="MyAnfEykKp1ZIYtwIa3U-79" style="edgeStyle=orthogonalEdgeStyle;rounded=0;orthogonalLoop=1;jettySize=auto;html=1;entryX=0.071;entryY=0.689;entryDx=0;entryDy=0;entryPerimeter=0;" parent="1" source="MyAnfEykKp1ZIYtwIa3U-10" target="MyAnfEykKp1ZIYtwIa3U-23" edge="1">
          <mxGeometry relative="1" as="geometry" />
        </mxCell>
        <mxCell id="j78uBd7MLfnu-CO2hj0Y-8" value="crm_sales_details" style="rounded=1;whiteSpace=wrap;html=1;strokeColor=none;fillColor=#C0C0C0;fontSize=14;" parent="1" vertex="1">
          <mxGeometry x="610.25" y="230" width="160" height="30" as="geometry" />
        </mxCell>
        <mxCell id="j78uBd7MLfnu-CO2hj0Y-9" value="crm_cust_info" style="rounded=1;whiteSpace=wrap;html=1;strokeColor=none;fillColor=#C0C0C0;fontSize=14;" parent="1" vertex="1">
          <mxGeometry x="610.25" y="270" width="160" height="30" as="geometry" />
        </mxCell>
        <mxCell id="j78uBd7MLfnu-CO2hj0Y-10" value="&lt;font style=&quot;font-size: 14px;&quot;&gt;crm_prd_info&lt;/font&gt;" style="rounded=1;whiteSpace=wrap;html=1;strokeColor=none;fillColor=#C0C0C0;" parent="1" vertex="1">
          <mxGeometry x="610.25" y="310" width="160" height="30" as="geometry" />
        </mxCell>
        <mxCell id="j78uBd7MLfnu-CO2hj0Y-11" value="&lt;font style=&quot;font-size: 14px;&quot;&gt;erp_cust_az12&lt;/font&gt;" style="rounded=1;whiteSpace=wrap;html=1;strokeColor=none;fillColor=#C0C0C0;" parent="1" vertex="1">
          <mxGeometry x="609.75" y="390" width="160.5" height="30" as="geometry" />
        </mxCell>
        <mxCell id="j78uBd7MLfnu-CO2hj0Y-12" value="&lt;font style=&quot;font-size: 14px;&quot;&gt;erp_loc_a101&lt;/font&gt;" style="rounded=1;whiteSpace=wrap;html=1;strokeColor=none;fillColor=#C0C0C0;" parent="1" vertex="1">
          <mxGeometry x="609.75" y="430" width="160.5" height="30" as="geometry" />
        </mxCell>
        <mxCell id="j78uBd7MLfnu-CO2hj0Y-13" value="&lt;font style=&quot;font-size: 14px;&quot;&gt;erp_px_cat_g1v2&lt;/font&gt;" style="rounded=1;whiteSpace=wrap;html=1;strokeColor=none;fillColor=#C0C0C0;" parent="1" vertex="1">
          <mxGeometry x="609.75" y="470" width="160.5" height="30" as="geometry" />
        </mxCell>
        <mxCell id="HklP1C8UEDFDXZywUHqZ-1" value="fact_sales" style="rounded=1;whiteSpace=wrap;html=1;strokeColor=none;fillColor=#FFD700;fontSize=14;" vertex="1" parent="1">
          <mxGeometry x="850" y="229.99999999999997" width="160" height="30" as="geometry" />
        </mxCell>
        <mxCell id="HklP1C8UEDFDXZywUHqZ-2" value="dim_customers" style="rounded=1;whiteSpace=wrap;html=1;strokeColor=none;fillColor=#FFD700;fontSize=14;" vertex="1" parent="1">
          <mxGeometry x="850" y="330" width="160" height="30" as="geometry" />
        </mxCell>
        <mxCell id="HklP1C8UEDFDXZywUHqZ-3" value="&lt;font style=&quot;font-size: 14px;&quot;&gt;dim_products&lt;/font&gt;" style="rounded=1;whiteSpace=wrap;html=1;strokeColor=none;fillColor=#FFD700;" vertex="1" parent="1">
          <mxGeometry x="850" y="410" width="160" height="30" as="geometry" />
        </mxCell>
        <mxCell id="HklP1C8UEDFDXZywUHqZ-7" value="" style="endArrow=classic;html=1;rounded=0;jumpStyle=gap;" edge="1" parent="1" source="j78uBd7MLfnu-CO2hj0Y-8" target="HklP1C8UEDFDXZywUHqZ-1">
          <mxGeometry width="50" height="50" relative="1" as="geometry">
            <mxPoint x="770.25" y="205.01" as="sourcePoint" />
            <mxPoint x="850" y="250" as="targetPoint" />
          </mxGeometry>
        </mxCell>
        <mxCell id="HklP1C8UEDFDXZywUHqZ-8" value="" style="endArrow=classic;html=1;rounded=0;entryX=0;entryY=0.5;entryDx=0;entryDy=0;jumpStyle=gap;" edge="1" parent="1" target="HklP1C8UEDFDXZywUHqZ-2">
          <mxGeometry width="50" height="50" relative="1" as="geometry">
            <mxPoint x="770.25" y="410" as="sourcePoint" />
            <mxPoint x="870.25" y="413" as="targetPoint" />
          </mxGeometry>
        </mxCell>
        <mxCell id="HklP1C8UEDFDXZywUHqZ-9" value="" style="endArrow=classic;html=1;rounded=0;entryX=0;entryY=0.5;entryDx=0;entryDy=0;jumpStyle=gap;" edge="1" parent="1" target="HklP1C8UEDFDXZywUHqZ-3">
          <mxGeometry width="50" height="50" relative="1" as="geometry">
            <mxPoint x="770.25" y="489.5" as="sourcePoint" />
            <mxPoint x="870.25" y="492.5" as="targetPoint" />
          </mxGeometry>
        </mxCell>
        <mxCell id="HklP1C8UEDFDXZywUHqZ-10" value="" style="endArrow=classic;html=1;rounded=0;entryX=0;entryY=0.5;entryDx=0;entryDy=0;jumpStyle=gap;" edge="1" parent="1" target="HklP1C8UEDFDXZywUHqZ-2">
          <mxGeometry width="50" height="50" relative="1" as="geometry">
            <mxPoint x="770.25" y="283.5" as="sourcePoint" />
            <mxPoint x="860.25" y="340" as="targetPoint" />
          </mxGeometry>
        </mxCell>
        <mxCell id="HklP1C8UEDFDXZywUHqZ-11" value="" style="endArrow=classic;html=1;rounded=0;jumpStyle=gap;" edge="1" parent="1">
          <mxGeometry width="50" height="50" relative="1" as="geometry">
            <mxPoint x="770" y="330" as="sourcePoint" />
            <mxPoint x="850" y="420" as="targetPoint" />
          </mxGeometry>
        </mxCell>
        <mxCell id="HklP1C8UEDFDXZywUHqZ-13" value="" style="endArrow=classic;html=1;rounded=0;entryX=0;entryY=0.25;entryDx=0;entryDy=0;jumpStyle=gap;" edge="1" parent="1" target="HklP1C8UEDFDXZywUHqZ-2">
          <mxGeometry width="50" height="50" relative="1" as="geometry">
            <mxPoint x="770.25" y="440" as="sourcePoint" />
            <mxPoint x="850" y="360" as="targetPoint" />
          </mxGeometry>
        </mxCell>
      </root>
    </mxGraphModel>
  </diagram>
</mxfile>
